<svg width="65" height="64" fill="none" xmlns="http://www.w3.org/2000/svg"><path d="M29.605 31.424c-.912 0-1.632.8-1.632 1.776s.736 1.776 1.632 1.776c.912 0 1.632-.8 1.632-1.776.016-.976-.72-1.776-1.632-1.776Zm5.84 0c-.912 0-1.632.8-1.632 1.776s.736 1.776 1.632 1.776c.912 0 1.632-.8 1.632-1.776s-.72-1.776-1.632-1.776Z" fill="#fff"/><path d="M43.22 18H21.78a3.288 3.288 0 0 0-3.28 3.296v21.632a3.288 3.288 0 0 0 3.28 3.296h18.144l-.848-2.96 2.048 1.904 1.936 1.792L46.5 50V21.296A3.288 3.288 0 0 0 43.22 18Zm-6.176 20.896s-.576-.688-1.056-1.296c2.096-.592 2.896-1.904 2.896-1.904a9.156 9.156 0 0 1-1.84.944c-.8.336-1.568.56-2.32.688a11.208 11.208 0 0 1-4.144-.016 13.431 13.431 0 0 1-2.352-.688 9.377 9.377 0 0 1-1.168-.544c-.048-.032-.096-.048-.144-.08a.22.22 0 0 1-.064-.048c-.288-.16-.448-.272-.448-.272s.768 1.28 2.8 1.888c-.48.608-1.072 1.328-1.072 1.328-3.536-.112-4.88-2.432-4.88-2.432 0-5.152 2.304-9.328 2.304-9.328 2.304-1.728 4.496-1.68 4.496-1.68l.16.192c-2.88.832-4.208 2.096-4.208 2.096s.352-.192.944-.464c1.712-.752 3.072-.96 3.632-1.008.096-.016.176-.032.272-.032.976-.128 2.08-.16 3.232-.032 1.52.176 3.152.624 4.816 1.536 0 0-1.264-1.2-3.984-2.032l.224-.256s2.192-.048 4.496 1.68c0 0 2.304 4.176 2.304 9.328 0 0-1.36 2.32-4.896 2.432Z" fill="#fff"/></svg>