<svg width="65" height="64" fill="none" xmlns="http://www.w3.org/2000/svg"><path fill-rule="evenodd" clip-rule="evenodd" d="M32.451 16.384c-8.807 0-15.951 7.144-15.951 15.951 0 7.046 4.6 13.015 10.862 15.168.783.098 1.077-.391 1.077-.783v-2.74c-4.404.979-5.382-2.153-5.382-2.153-.685-1.859-1.762-2.348-1.762-2.348-1.468-.979.098-.979.098-.979 1.566.098 2.446 1.664 2.446 1.664 1.468 2.446 3.72 1.761 4.6 1.37.098-1.077.587-1.762.978-2.153-3.523-.391-7.241-1.762-7.241-7.927 0-1.761.587-3.131 1.663-4.305-.097-.294-.685-1.958.196-4.11 0 0 1.37-.392 4.404 1.663 1.272-.391 2.642-.49 4.012-.49 1.37 0 2.74.196 4.012.49 3.034-2.055 4.404-1.664 4.404-1.664.88 2.153.294 3.817.196 4.208a6.33 6.33 0 0 1 1.663 4.306c0 6.165-3.718 7.438-7.241 7.829.587.49 1.076 1.468 1.076 2.936v4.403c0 .392.294.881 1.077.783A15.968 15.968 0 0 0 48.5 32.335c-.098-8.807-7.242-15.951-16.049-15.951Z" fill="#fff"/></svg>