<?xml version="1.0" standalone="no"?>
<!DOCTYPE svg PUBLIC "-//W3C//DTD SVG 20010904//EN"
 "http://www.w3.org/TR/2001/REC-SVG-20010904/DTD/svg10.dtd">
<svg version="1.0" xmlns="http://www.w3.org/2000/svg"
 width="512.000000pt" height="512.000000pt" viewBox="0 0 512.000000 512.000000"
 preserveAspectRatio="xMidYMid meet">
<metadata>
Created by potrace 1.14, written by Peter Selinger 2001-2017
</metadata>
<g transform="translate(0.000000,512.000000) scale(0.100000,-0.100000)"
fill="#000000" stroke="none">
<path d="M3294 4431 c5 -8 0 -10 -18 -7 -14 3 -28 0 -31 -5 -4 -5 -11 -9 -16
-9 -6 0 -7 5 -3 12 4 6 -3 4 -16 -5 -19 -13 -27 -14 -39 -4 -10 8 -13 8 -8 1
4 -7 0 -15 -9 -18 -10 -4 -13 -2 -8 7 5 9 4 9 -7 0 -7 -7 -21 -13 -31 -13 -10
0 -18 -4 -18 -10 0 -5 -7 -7 -15 -4 -8 4 -15 1 -15 -6 0 -6 -4 -8 -10 -5 -5 3
-10 0 -10 -7 0 -10 -2 -10 -9 1 -7 11 -11 10 -19 -5 -6 -11 -14 -19 -19 -18
-17 2 -43 -9 -43 -17 0 -5 -9 -9 -20 -9 -10 0 -23 -6 -27 -14 -4 -8 -10 -15
-13 -15 -17 0 -39 -14 -34 -22 3 -5 -2 -9 -10 -9 -8 0 -31 -16 -51 -35 -19
-20 -35 -32 -35 -28 0 4 -11 -7 -23 -25 -13 -17 -27 -29 -30 -25 -4 3 -7 1 -7
-5 0 -6 -14 -26 -31 -44 -33 -36 -70 -87 -108 -152 -13 -23 -30 -45 -38 -49
-7 -5 -11 -12 -8 -18 4 -5 -1 -16 -9 -25 -9 -9 -14 -20 -11 -25 4 -5 -3 -9
-15 -9 -15 0 -22 8 -26 29 -4 17 -15 38 -25 47 -11 9 -19 22 -19 29 0 7 -9 20
-19 29 -11 10 -22 28 -25 42 -4 13 -13 24 -22 24 -8 0 -13 4 -10 9 3 5 -1 11
-9 15 -8 3 -15 12 -15 21 0 8 -4 15 -10 15 -5 0 -10 7 -10 16 0 8 -5 12 -11 9
-6 -4 -13 1 -16 11 -3 11 -25 35 -48 54 -24 19 -44 40 -44 47 -1 7 -8 10 -18
6 -10 -3 -15 -2 -11 2 7 7 -33 44 -40 37 -2 -2 -12 7 -23 20 -11 13 -18 16
-14 8 4 -10 2 -9 -8 2 -8 10 -17 15 -20 11 -4 -3 -7 -1 -7 5 0 7 -7 12 -15 12
-8 0 -15 4 -15 9 0 5 -7 12 -16 15 -8 3 -12 2 -9 -4 3 -6 -1 -7 -9 -4 -9 3
-16 10 -16 15 0 5 -9 9 -20 9 -10 0 -25 6 -32 13 -7 8 -20 12 -30 9 -10 -2
-18 1 -18 7 0 6 -5 11 -11 11 -5 0 -7 -5 -4 -11 8 -13 -37 12 -47 26 -5 6 -8
5 -8 -4 0 -10 -3 -11 -14 -2 -11 9 -15 9 -19 -1 -4 -10 -6 -10 -6 0 -1 6 -9
12 -19 12 -10 0 -24 6 -31 13 -11 10 -13 10 -7 0 9 -16 -10 -17 -19 -3 -5 8
-11 8 -20 0 -10 -8 -15 -8 -20 0 -5 8 -11 8 -21 -1 -11 -9 -14 -9 -14 0 0 7
-5 9 -10 6 -21 -13 -62 -16 -55 -4 5 8 1 8 -15 -1 -12 -6 -31 -10 -41 -7 -10
3 -19 1 -19 -3 0 -5 -11 -7 -25 -6 -13 2 -22 -1 -19 -5 3 -5 -9 -7 -26 -5 -24
3 -30 0 -26 -11 4 -9 2 -11 -7 -6 -18 11 -37 12 -37 2 0 -5 -9 -9 -20 -9 -10
0 -29 -4 -42 -9 -13 -5 -36 -12 -51 -16 -17 -3 -25 -10 -21 -17 4 -7 3 -8 -5
-4 -6 4 -19 2 -28 -6 -14 -11 -16 -11 -9 1 6 9 2 9 -15 -2 -13 -9 -28 -17 -34
-19 -5 -2 -9 -6 -8 -10 2 -4 -3 -5 -11 -2 -8 3 -17 0 -21 -5 -3 -6 -11 -9 -16
-6 -5 4 -9 2 -9 -4 0 -6 -6 -8 -14 -5 -7 3 -16 -2 -20 -11 -3 -9 -10 -13 -16
-10 -13 8 0 -26 17 -43 7 -8 10 -18 7 -24 -4 -7 -2 -8 4 -4 11 7 17 -6 13 -27
-1 -5 3 -6 8 -3 5 4 13 -3 16 -15 6 -17 9 -19 16 -8 7 11 9 11 9 1 0 -17 28
-44 62 -61 16 -8 26 -16 23 -19 -4 -4 101 -72 112 -72 2 0 11 -7 20 -15 8 -8
19 -13 24 -10 5 4 9 1 9 -5 0 -6 5 -8 10 -5 6 3 13 -1 16 -9 3 -9 10 -14 14
-11 5 3 14 0 22 -7 7 -7 22 -15 33 -16 11 -2 23 -8 26 -14 3 -5 10 -10 15 -11
21 -2 64 -22 64 -30 0 -4 4 -6 9 -2 5 3 12 1 16 -5 4 -6 11 -8 16 -5 5 4 9 1
9 -5 0 -6 5 -8 11 -4 11 7 29 -12 29 -31 0 -5 -4 -4 -9 4 -5 8 -14 10 -22 5
-8 -4 -20 -9 -29 -10 -19 -3 -54 -12 -57 -14 -2 -2 -7 -4 -13 -5 -5 -1 -13 -4
-17 -5 -5 -1 -11 -2 -15 -1 -5 0 -8 -3 -8 -9 0 -6 -3 -9 -7 -8 -15 4 -53 -13
-53 -24 0 -5 -7 -8 -15 -4 -8 3 -15 1 -15 -4 0 -6 -9 -10 -21 -10 -11 0 -17
-4 -14 -10 3 -5 0 -10 -8 -10 -8 0 -20 -7 -27 -15 -7 -8 -15 -13 -19 -10 -4 2
-14 -5 -21 -16 -8 -10 -19 -19 -25 -19 -6 0 -19 -11 -29 -25 -10 -13 -22 -22
-27 -19 -5 3 -9 -2 -9 -10 0 -10 -6 -13 -15 -10 -11 5 -13 2 -8 -12 4 -10 2
-15 -3 -11 -5 3 -19 -8 -29 -24 -11 -16 -26 -29 -33 -29 -7 0 -10 -4 -7 -10 3
-5 1 -10 -5 -10 -6 0 -9 -4 -5 -9 3 -5 -4 -12 -15 -16 -11 -3 -19 -12 -17 -18
1 -7 -4 -11 -11 -9 -6 1 -11 -1 -10 -5 4 -13 -35 -72 -44 -67 -5 3 -8 2 -7 -3
3 -20 -2 -34 -11 -28 -6 4 -9 3 -8 -2 2 -8 -20 -54 -31 -63 -12 -10 -31 -50
-31 -65 0 -10 -5 -13 -12 -9 -7 4 -4 -2 6 -15 11 -12 25 -20 32 -17 7 3 14 -1
17 -7 3 -7 20 -14 38 -15 18 -1 36 -7 40 -13 5 -8 9 -8 13 0 4 6 13 8 19 4 7
-4 44 -8 83 -9 39 0 77 -4 84 -9 9 -6 11 -4 5 5 -6 10 -4 12 8 7 9 -3 19 -2
22 3 4 7 13 7 24 0 12 -6 22 -5 29 2 9 9 12 9 12 -1 0 -7 5 -9 13 -4 12 8 50
13 99 15 15 0 26 4 23 8 -2 4 8 6 23 5 15 0 26 -4 24 -8 -2 -4 -13 -28 -24
-54 -12 -27 -23 -52 -24 -58 -5 -32 -18 -54 -28 -48 -6 4 -5 -1 3 -10 7 -9 9
-17 5 -17 -5 0 -14 -16 -20 -35 -8 -25 -8 -35 0 -35 6 0 6 -4 -2 -9 -7 -4 -14
-19 -14 -32 -1 -13 -6 -30 -11 -36 -6 -9 -5 -13 4 -13 11 0 11 -2 -1 -10 -8
-5 -11 -10 -7 -10 4 0 3 -8 -2 -18 -6 -11 -6 -24 0 -35 7 -12 6 -17 -1 -17 -6
0 -8 -5 -5 -10 4 -6 2 -17 -5 -25 -8 -9 -8 -15 0 -20 8 -5 8 -11 -1 -21 -9
-11 -9 -14 1 -14 10 0 10 -3 0 -15 -9 -11 -10 -18 -1 -28 6 -8 8 -17 4 -20
-10 -11 -12 -97 -1 -97 5 0 7 -4 4 -8 -8 -13 66 -13 81 -1 10 9 13 8 13 -2 1
-10 4 -9 11 3 5 10 16 15 24 12 8 -4 15 -1 15 6 0 7 7 10 15 6 8 -3 15 -2 15
2 0 11 52 32 63 25 6 -3 7 -1 3 5 -4 7 -1 12 7 12 8 0 18 7 21 16 3 8 10 13
15 10 5 -4 15 -1 23 6 26 24 77 58 88 58 6 0 9 4 5 9 -3 5 4 12 15 16 11 3 20
11 20 17 0 5 7 8 15 4 8 -3 14 -2 13 2 -3 8 34 52 43 52 4 0 32 25 63 55 31
30 56 52 56 49 0 -9 161 158 171 178 5 10 17 18 25 18 8 0 13 4 10 8 -3 5 8
19 25 32 16 14 29 31 29 38 0 7 3 11 8 9 4 -2 17 7 29 20 12 13 20 23 16 23
-3 0 4 8 15 19 12 10 22 21 22 25 0 4 12 19 28 35 50 51 101 111 95 111 -3 0
4 9 17 20 13 11 19 20 15 20 -4 0 3 9 16 21 13 12 23 25 22 30 -2 5 5 9 14 9
9 0 13 3 10 6 -4 4 6 18 21 32 15 13 20 21 12 17 -13 -7 -13 -6 -1 6 10 11 15
11 18 1 3 -6 10 -9 16 -5 7 3 9 3 5 -2 -4 -4 4 -21 17 -37 14 -16 23 -34 20
-39 -4 -5 0 -6 8 -4 7 3 19 -5 27 -20 7 -14 17 -25 22 -25 5 0 6 -4 3 -10 -3
-5 1 -10 9 -10 9 0 16 -7 16 -15 0 -8 5 -15 10 -15 6 0 16 -11 22 -25 6 -14
18 -25 26 -25 9 0 12 -3 9 -6 -3 -4 7 -19 23 -34 17 -16 30 -31 30 -34 0 -3
20 -26 45 -51 25 -25 43 -45 40 -45 -3 0 7 -13 22 -28 15 -16 31 -27 36 -25 4
2 7 0 7 -6 0 -6 12 -23 28 -38 15 -15 26 -32 24 -38 -2 -5 -1 -7 3 -3 9 9 55
-32 55 -49 0 -8 4 -12 9 -9 5 4 21 -7 34 -24 14 -16 31 -30 37 -30 6 0 8 -4 5
-10 -3 -5 1 -10 10 -10 9 0 13 -4 10 -10 -3 -5 -1 -10 5 -10 6 0 24 -13 40
-30 16 -16 33 -30 37 -30 5 0 15 -9 23 -20 8 -11 20 -20 28 -20 7 0 11 -4 8
-8 -2 -4 9 -14 25 -21 16 -7 27 -16 25 -20 -3 -4 9 -13 25 -20 16 -7 27 -17
23 -22 -3 -5 4 -9 15 -9 12 0 21 -4 21 -10 0 -5 9 -10 20 -10 12 0 20 -7 20
-17 0 -9 3 -14 6 -10 4 3 13 -1 21 -9 8 -8 19 -12 24 -9 5 4 9 3 9 -2 0 -9 61
-39 73 -35 4 1 7 -3 7 -9 0 -6 6 -9 13 -6 6 2 18 -3 25 -12 8 -10 11 -10 6 -2
-5 10 -3 12 7 5 32 -19 102 -24 117 -7 9 9 10 13 1 13 -8 0 -8 4 1 15 9 11 9
15 1 15 -7 0 -9 5 -4 13 10 16 13 37 5 37 -4 0 -7 22 -8 50 0 27 3 47 7 44 5
-2 2 6 -5 20 -7 13 -11 39 -10 58 1 18 -3 36 -9 40 -9 6 -8 8 2 8 10 0 11 3 2
14 -6 7 -12 36 -13 63 -2 28 -6 49 -10 46 -7 -4 -13 28 -9 50 0 4 -4 7 -9 7
-6 0 -10 11 -10 25 0 14 -5 25 -11 25 -8 0 -8 5 1 15 10 12 9 16 -4 21 -9 3
-16 14 -16 25 0 10 -8 23 -17 28 -12 7 -13 11 -5 11 10 0 9 4 -3 16 -20 21 -3
45 28 38 12 -3 34 -5 49 -6 17 -1 25 -5 21 -12 -4 -6 0 -5 9 2 10 8 19 9 22 3
3 -5 16 -7 28 -3 16 4 19 2 13 -9 -7 -12 -6 -12 7 -1 13 10 17 10 21 0 4 -10
6 -10 6 1 1 11 4 11 16 1 9 -7 15 -8 15 -2 0 13 42 3 52 -12 5 -7 8 -7 8 2 0
9 12 12 40 9 25 -2 40 0 40 7 0 6 5 4 10 -4 5 -8 10 -10 10 -4 0 6 14 10 30 9
17 -1 33 2 35 6 3 4 16 6 30 4 15 -1 29 4 35 14 8 13 9 14 10 1 0 -9 3 -11 8
-5 4 6 19 18 34 28 28 18 29 47 1 47 -8 0 -12 4 -8 9 3 5 -1 16 -9 24 -8 8
-12 17 -9 21 4 3 1 6 -5 6 -7 0 -12 7 -12 15 0 8 -4 15 -10 15 -5 0 -10 7 -10
16 0 9 -5 12 -11 8 -7 -4 -10 -1 -7 7 3 8 -5 24 -18 35 -12 12 -20 25 -17 28
4 3 1 6 -5 6 -7 0 -12 7 -12 15 0 8 -7 15 -15 15 -14 0 -19 12 -16 33 0 4 -6
7 -15 7 -8 0 -12 5 -9 10 3 6 2 10 -4 10 -9 0 -67 54 -73 68 -2 4 -6 6 -10 5
-5 -2 -8 5 -8 14 0 9 -3 14 -6 10 -3 -3 -16 5 -29 19 -12 13 -27 24 -33 24 -5
0 -12 7 -16 15 -3 8 -10 15 -16 15 -6 0 -26 11 -44 25 -18 14 -38 25 -44 25
-7 0 -12 5 -12 11 0 5 -5 7 -10 4 -6 -3 -13 1 -16 9 -3 9 -10 13 -16 10 -5 -3
-19 2 -30 13 -12 10 -18 13 -15 6 5 -7 -4 -6 -23 4 -17 8 -37 16 -45 17 -8 1
-17 5 -21 8 -3 4 -12 4 -20 1 -8 -3 -14 1 -14 8 0 7 -3 9 -6 6 -4 -3 -15 -2
-25 4 -12 6 -19 6 -19 0 0 -5 -9 -7 -20 -4 -11 3 -20 10 -20 15 0 6 -7 4 -17
-3 -13 -11 -17 -11 -20 -1 -3 6 -10 9 -16 5 -6 -4 -21 -7 -34 -8 -22 -1 -22 0
-3 17 11 10 28 19 39 21 11 2 29 11 39 20 10 9 21 14 24 11 4 -3 27 6 52 20
25 14 46 23 46 20 0 -3 7 2 16 10 8 9 22 16 30 16 8 0 14 4 14 9 0 9 23 20 45
22 6 0 14 7 18 15 4 8 15 14 22 14 8 0 15 5 15 10 0 6 5 10 10 10 10 0 16 5
75 58 14 12 25 20 25 17 0 -3 17 12 38 33 22 20 37 40 35 44 -2 3 1 8 6 10 5
1 11 10 13 18 2 8 9 21 16 28 14 16 7 32 -14 32 -8 0 -14 5 -14 11 0 5 -4 7
-10 4 -5 -3 -10 -1 -10 6 0 7 -3 9 -6 6 -4 -3 -16 -1 -28 5 -11 7 -24 11 -28
10 -5 -1 -8 2 -8 6 0 4 -10 8 -22 9 -11 1 -25 8 -29 15 -7 10 -9 10 -9 -2 0
-9 -5 -7 -16 8 -13 18 -19 21 -30 11 -11 -9 -14 -9 -14 0 0 7 -4 10 -9 6 -5
-3 -12 -1 -16 5 -4 6 -11 8 -16 5 -5 -4 -9 -2 -9 4 0 5 -9 8 -20 6 -11 -2 -20
2 -20 8 0 7 -4 6 -10 -3 -5 -8 -10 -10 -10 -4 0 6 -6 11 -12 12 -69 7 -107 16
-102 24 4 6 -3 5 -14 -1 -12 -6 -23 -7 -26 -3 -2 4 -32 8 -65 7 -34 0 -61 4
-61 10 0 6 -3 6 -8 0 -8 -13 -22 -13 -41 -1 -10 6 -12 5 -7 -3z m396 -1291 c0
-5 -5 -10 -11 -10 -5 0 -7 5 -4 10 3 6 8 10 11 10 2 0 4 -4 4 -10z"/>
<path d="M2614 3021 c5 -7 -16 -9 -64 -8 -57 2 -70 0 -70 -13 0 -13 -1 -13
-10 0 -8 13 -11 11 -16 -7 -4 -13 -9 -21 -13 -18 -4 2 -14 -5 -22 -17 -8 -11
-19 -26 -25 -32 -16 -17 -39 -60 -36 -68 1 -5 -3 -8 -10 -8 -6 0 -9 -3 -6 -6
4 -3 0 -17 -7 -31 -8 -15 -12 -30 -9 -35 3 -4 -1 -11 -9 -14 -8 -3 -13 -13
-10 -24 3 -10 0 -21 -6 -24 -5 -4 -8 -13 -4 -21 3 -8 1 -15 -5 -15 -5 0 -7
-12 -4 -26 4 -21 2 -25 -9 -19 -12 8 -12 6 0 -8 8 -10 9 -17 3 -17 -7 0 -10
-15 -8 -35 1 -19 -1 -35 -6 -35 -4 0 -5 -7 -2 -15 4 -9 0 -15 -7 -15 -9 0 -10
-3 -4 -8 11 -8 17 -44 6 -37 -4 2 -7 -21 -7 -51 1 -38 -3 -53 -11 -50 -7 3
-10 -1 -6 -9 3 -8 9 -12 14 -9 5 3 9 0 9 -5 0 -6 -5 -11 -12 -11 -6 0 -8 -3
-5 -7 4 -3 2 -12 -4 -20 -9 -10 -8 -13 1 -13 9 0 10 -3 1 -13 -8 -10 -7 -17 2
-27 9 -9 9 -11 0 -6 -7 4 -12 -1 -12 -11 0 -43 -8 -103 -14 -109 -3 -4 -2 -15
3 -25 6 -10 6 -20 1 -23 -5 -3 -7 -16 -3 -28 4 -16 2 -19 -9 -13 -12 7 -12 6
-1 -7 9 -12 10 -18 2 -23 -8 -5 -8 -11 1 -21 9 -11 8 -14 -7 -14 -12 0 -15 -3
-8 -8 11 -7 11 -38 0 -49 -3 -3 -1 -15 5 -26 7 -12 7 -17 1 -13 -6 3 -11 -8
-11 -27 -2 -45 -8 -102 -10 -102 -1 0 -4 -12 -6 -28 -2 -18 0 -25 7 -21 7 5 8
2 2 -7 -10 -17 -13 -32 -15 -82 -1 -21 -6 -40 -11 -43 -5 -3 -4 -12 3 -20 6
-8 7 -14 2 -14 -6 0 -10 -23 -9 -50 1 -28 -3 -50 -8 -50 -5 0 -2 -8 5 -17 12
-14 12 -16 0 -8 -11 6 -13 3 -9 -12 3 -11 1 -28 -5 -38 -7 -14 -7 -16 3 -10 9
6 11 4 5 -5 -5 -8 -10 -30 -12 -49 -8 -103 -10 -119 -18 -131 -6 -9 -4 -11 6
-5 11 7 12 6 2 -6 -10 -12 -10 -18 0 -29 9 -10 9 -11 0 -6 -9 5 -13 -2 -14
-21 -2 -63 -5 -79 -12 -90 -5 -8 -4 -13 3 -13 6 0 8 -5 4 -12 -7 -11 -12 -57
-15 -130 -1 -21 -5 -36 -8 -33 -4 2 -8 -2 -8 -10 0 -8 5 -15 11 -15 6 0 6 -4
-2 -12 -8 -8 -8 -16 0 -32 10 -20 10 -20 -7 -6 -17 14 -18 14 -5 -9 11 -22 11
-23 -6 -17 -15 5 -14 2 5 -14 12 -11 28 -17 33 -14 6 4 14 0 19 -7 6 -10 9
-11 9 -1 0 8 9 11 25 8 14 -3 25 0 25 6 0 6 9 3 20 -7 20 -18 21 -18 14 1 -7
17 -6 17 9 6 9 -8 25 -11 37 -7 12 4 28 1 37 -7 9 -7 14 -8 10 -2 -11 18 42
24 59 7 12 -13 14 -12 15 4 0 10 3 13 5 7 2 -6 18 -8 34 -6 21 3 30 0 31 -9 0
-8 4 -5 9 6 5 11 9 14 9 8 1 -16 31 -17 31 -2 0 8 5 8 15 -1 12 -10 15 -10 15
0 0 9 7 7 22 -6 12 -10 18 -13 14 -6 -7 11 4 13 53 10 33 -1 61 0 61 5 0 4 5
7 11 7 5 0 7 -4 4 -10 -3 -6 1 -7 9 -4 9 3 16 9 16 13 0 4 12 8 28 9 15 1 29
7 30 12 2 6 8 8 13 4 5 -3 9 -1 9 5 0 6 7 8 15 5 8 -4 17 1 21 10 3 9 10 14
14 11 4 -3 27 13 50 35 23 22 47 40 52 40 5 0 7 4 3 9 -3 6 1 13 9 18 14 8 16
12 16 34 0 5 5 7 12 3 6 -4 8 -3 4 4 -3 6 -2 13 4 17 6 4 8 11 5 16 -4 5 -1 9
4 9 6 0 10 3 9 7 -1 5 2 28 6 53 5 25 8 57 8 73 0 15 5 27 11 27 7 0 6 4 -3
10 -8 5 -10 10 -5 10 6 0 3 5 -5 10 -13 9 -13 11 0 20 10 7 11 10 2 10 -8 0
-11 9 -8 25 3 14 1 25 -4 25 -4 0 -7 8 -6 18 2 9 -2 20 -8 24 -8 5 -7 8 2 8
10 0 10 5 2 20 -6 11 -7 20 -3 20 4 0 1 5 -7 11 -11 8 -12 12 -2 16 6 2 9 10
5 16 -9 15 -14 37 -14 60 0 9 -3 16 -7 13 -4 -2 -7 7 -7 20 0 13 4 24 8 24 5
0 1 7 -8 16 -14 15 -14 17 2 30 15 12 16 13 1 8 -12 -4 -16 -1 -14 13 2 10 -2
24 -8 32 -8 11 -8 13 1 7 9 -5 11 -2 7 8 -3 9 -11 13 -18 9 -6 -4 -5 1 3 10 9
11 10 17 2 17 -6 0 -11 5 -11 11 0 5 4 7 10 4 6 -3 7 1 4 9 -3 9 -11 13 -18 9
-7 -5 -7 -2 1 8 7 9 9 20 3 29 -6 9 -4 20 3 29 9 12 9 13 0 7 -9 -5 -13 0 -15
16 -2 37 -3 42 -12 57 -7 11 -6 12 5 5 11 -6 11 -3 -1 16 -9 14 -15 42 -14 63
1 20 -2 37 -6 37 -13 0 -20 29 -8 36 7 5 8 2 3 -6 -6 -9 -4 -11 5 -5 10 6 9
11 -5 22 -11 7 -13 13 -7 13 9 0 10 5 4 18 -5 9 -7 23 -4 31 3 9 0 11 -9 6
-11 -6 -12 -5 -2 5 10 11 9 18 -5 34 -12 14 -13 17 -2 11 12 -6 13 -5 3 6 -16
16 -17 33 -2 23 6 -3 3 6 -7 22 -12 17 -14 25 -6 20 11 -7 12 -4 4 10 -5 11
-8 27 -7 37 2 9 -1 17 -6 17 -4 0 -5 7 -2 17 5 12 3 14 -8 8 -12 -8 -12 -6 0
8 7 9 9 17 4 17 -5 0 -9 9 -10 20 -1 11 4 20 10 20 9 0 9 2 0 8 -6 4 -13 19
-15 32 -2 14 -7 31 -12 38 -4 7 -2 20 6 29 11 14 11 16 -1 8 -11 -6 -13 -3 -9
13 4 14 2 20 -4 16 -6 -4 -8 1 -3 15 4 13 2 21 -6 21 -9 0 -8 4 1 15 7 8 8 15
3 15 -6 0 -10 12 -11 28 -2 35 -9 69 -18 84 -5 7 -3 8 6 3 9 -5 11 -4 6 3 -9
15 -17 49 -20 82 -1 14 -5 31 -9 37 -4 6 -1 14 5 16 8 3 6 6 -5 6 -15 1 -16 5
-7 21 8 15 8 20 -1 20 -7 0 -9 3 -6 6 3 4 2 16 -4 27 -8 15 -8 18 1 12 9 -6 9
-2 1 14 -7 12 -9 26 -6 31 3 6 0 10 -7 10 -10 0 -10 2 1 9 9 6 10 11 2 15 -6
4 -9 12 -6 17 4 5 0 9 -7 9 -9 0 -9 3 2 10 13 9 13 10 0 10 -10 0 -11 3 -4 8
8 5 3 13 -14 26 -14 11 -22 14 -17 7 6 -10 2 -11 -15 -6 -17 6 -21 4 -14 -6 5
-9 -3 -7 -20 5 -16 10 -25 13 -22 7z"/>
</g>
</svg>
